<svg id="visual" viewBox="0 0 900 600" width="900" height="600" xmlns="http://www.w3.org/2000/svg" xmlns:xlink="http://www.w3.org/1999/xlink" version="1.1"><path d="M0 61L10.7 60C21.3 59 42.7 57 64.2 53C85.7 49 107.3 43 128.8 45C150.3 47 171.7 57 193 57C214.3 57 235.7 47 257 44C278.3 41 299.7 45 321.2 47C342.7 49 364.3 49 385.8 52C407.3 55 428.7 61 450 58C471.3 55 492.7 43 514.2 43C535.7 43 557.3 55 578.8 56C600.3 57 621.7 47 643 48C664.3 49 685.7 61 707 66C728.3 71 749.7 69 771.2 63C792.7 57 814.3 47 835.8 46C857.3 45 878.7 53 889.3 57L900 61L900 0L889.3 0C878.7 0 857.3 0 835.8 0C814.3 0 792.7 0 771.2 0C749.7 0 728.3 0 707 0C685.7 0 664.3 0 643 0C621.7 0 600.3 0 578.8 0C557.3 0 535.7 0 514.2 0C492.7 0 471.3 0 450 0C428.7 0 407.3 0 385.8 0C364.3 0 342.7 0 321.2 0C299.7 0 278.3 0 257 0C235.7 0 214.3 0 193 0C171.7 0 150.3 0 128.8 0C107.3 0 85.7 0 64.2 0C42.7 0 21.3 0 10.7 0L0 0Z" fill="#002131"></path><path d="M0 163L10.7 162C21.3 161 42.7 159 64.2 163C85.7 167 107.3 177 128.8 180C150.3 183 171.7 179 193 178C214.3 177 235.7 179 257 185C278.3 191 299.7 201 321.2 215C342.7 229 364.3 247 385.8 254C407.3 261 428.7 257 450 245C471.3 233 492.7 213 514.2 218C535.7 223 557.3 253 578.8 246C600.3 239 621.7 195 643 192C664.3 189 685.7 227 707 233C728.3 239 749.7 213 771.2 199C792.7 185 814.3 183 835.8 189C857.3 195 878.7 209 889.3 216L900 223L900 59L889.3 55C878.7 51 857.3 43 835.8 44C814.3 45 792.7 55 771.2 61C749.7 67 728.3 69 707 64C685.7 59 664.3 47 643 46C621.7 45 600.3 55 578.8 54C557.3 53 535.7 41 514.2 41C492.7 41 471.3 53 450 56C428.7 59 407.3 53 385.8 50C364.3 47 342.7 47 321.2 45C299.7 43 278.3 39 257 42C235.7 45 214.3 55 193 55C171.7 55 150.3 45 128.8 43C107.3 41 85.7 47 64.2 51C42.7 55 21.3 57 10.7 58L0 59Z" fill="#144154"></path><path d="M0 217L10.7 216C21.3 215 42.7 213 64.2 215C85.7 217 107.3 223 128.8 232C150.3 241 171.7 253 193 260C214.3 267 235.7 269 257 276C278.3 283 299.7 295 321.2 306C342.7 317 364.3 327 385.8 326C407.3 325 428.7 313 450 305C471.3 297 492.7 293 514.2 297C535.7 301 557.3 313 578.8 300C600.3 287 621.7 249 643 248C664.3 247 685.7 283 707 285C728.3 287 749.7 255 771.2 244C792.7 233 814.3 243 835.8 260C857.3 277 878.7 301 889.3 313L900 325L900 221L889.3 214C878.7 207 857.3 193 835.8 187C814.3 181 792.7 183 771.2 197C749.7 211 728.3 237 707 231C685.7 225 664.3 187 643 190C621.7 193 600.3 237 578.8 244C557.3 251 535.7 221 514.2 216C492.7 211 471.3 231 450 243C428.7 255 407.3 259 385.8 252C364.3 245 342.7 227 321.2 213C299.7 199 278.3 189 257 183C235.7 177 214.3 175 193 176C171.7 177 150.3 181 128.8 178C107.3 175 85.7 165 64.2 161C42.7 157 21.3 159 10.7 160L0 161Z" fill="#2c6578"></path><path d="M0 253L10.7 256C21.3 259 42.7 265 64.2 268C85.7 271 107.3 271 128.8 278C150.3 285 171.7 299 193 305C214.3 311 235.7 309 257 315C278.3 321 299.7 335 321.2 345C342.7 355 364.3 361 385.8 362C407.3 363 428.7 359 450 351C471.3 343 492.7 331 514.2 335C535.7 339 557.3 359 578.8 349C600.3 339 621.7 299 643 294C664.3 289 685.7 319 707 323C728.3 327 749.7 305 771.2 295C792.7 285 814.3 287 835.8 299C857.3 311 878.7 333 889.3 344L900 355L900 323L889.3 311C878.7 299 857.3 275 835.8 258C814.3 241 792.7 231 771.2 242C749.7 253 728.3 285 707 283C685.7 281 664.3 245 643 246C621.7 247 600.3 285 578.8 298C557.3 311 535.7 299 514.2 295C492.7 291 471.3 295 450 303C428.7 311 407.3 323 385.8 324C364.3 325 342.7 315 321.2 304C299.7 293 278.3 281 257 274C235.7 267 214.3 265 193 258C171.7 251 150.3 239 128.8 230C107.3 221 85.7 215 64.2 213C42.7 211 21.3 213 10.7 214L0 215Z" fill="#367487"></path><path d="M0 373L10.7 374C21.3 375 42.7 377 64.2 381C85.7 385 107.3 391 128.8 394C150.3 397 171.7 397 193 403C214.3 409 235.7 421 257 422C278.3 423 299.7 413 321.2 418C342.7 423 364.3 443 385.8 449C407.3 455 428.7 447 450 435C471.3 423 492.7 407 514.2 413C535.7 419 557.3 447 578.8 439C600.3 431 621.7 387 643 382C664.3 377 685.7 411 707 422C728.3 433 749.7 421 771.2 411C792.7 401 814.3 393 835.8 403C857.3 413 878.7 441 889.3 455L900 469L900 353L889.3 342C878.7 331 857.3 309 835.8 297C814.3 285 792.7 283 771.2 293C749.7 303 728.3 325 707 321C685.7 317 664.3 287 643 292C621.7 297 600.3 337 578.8 347C557.3 357 535.7 337 514.2 333C492.7 329 471.3 341 450 349C428.7 357 407.3 361 385.8 360C364.3 359 342.7 353 321.2 343C299.7 333 278.3 319 257 313C235.7 307 214.3 309 193 303C171.7 297 150.3 283 128.8 276C107.3 269 85.7 269 64.2 266C42.7 263 21.3 257 10.7 254L0 251Z" fill="#2c6578"></path><path d="M0 421L10.7 421C21.3 421 42.7 421 64.2 431C85.7 441 107.3 461 128.8 467C150.3 473 171.7 465 193 467C214.3 469 235.7 481 257 482C278.3 483 299.7 473 321.2 474C342.7 475 364.3 487 385.8 492C407.3 497 428.7 495 450 490C471.3 485 492.7 477 514.2 480C535.7 483 557.3 497 578.8 490C600.3 483 621.7 455 643 457C664.3 459 685.7 491 707 497C728.3 503 749.7 483 771.2 466C792.7 449 814.3 435 835.8 442C857.3 449 878.7 477 889.3 491L900 505L900 467L889.3 453C878.7 439 857.3 411 835.8 401C814.3 391 792.7 399 771.2 409C749.7 419 728.3 431 707 420C685.7 409 664.3 375 643 380C621.7 385 600.3 429 578.8 437C557.3 445 535.7 417 514.2 411C492.7 405 471.3 421 450 433C428.7 445 407.3 453 385.8 447C364.3 441 342.7 421 321.2 416C299.7 411 278.3 421 257 420C235.7 419 214.3 407 193 401C171.7 395 150.3 395 128.8 392C107.3 389 85.7 383 64.2 379C42.7 375 21.3 373 10.7 372L0 371Z" fill="#144154"></path><path d="M0 601L10.7 601C21.3 601 42.7 601 64.2 601C85.7 601 107.3 601 128.8 601C150.3 601 171.7 601 193 601C214.3 601 235.7 601 257 601C278.3 601 299.7 601 321.2 601C342.7 601 364.3 601 385.8 601C407.3 601 428.7 601 450 601C471.3 601 492.7 601 514.2 601C535.7 601 557.3 601 578.8 601C600.3 601 621.7 601 643 601C664.3 601 685.7 601 707 601C728.3 601 749.7 601 771.2 601C792.7 601 814.3 601 835.8 601C857.3 601 878.7 601 889.3 601L900 601L900 503L889.3 489C878.7 475 857.3 447 835.8 440C814.3 433 792.7 447 771.2 464C749.7 481 728.3 501 707 495C685.7 489 664.3 457 643 455C621.7 453 600.3 481 578.8 488C557.3 495 535.7 481 514.2 478C492.7 475 471.3 483 450 488C428.7 493 407.3 495 385.8 490C364.3 485 342.7 473 321.2 472C299.7 471 278.3 481 257 480C235.7 479 214.3 467 193 465C171.7 463 150.3 471 128.8 465C107.3 459 85.7 439 64.2 429C42.7 419 21.3 419 10.7 419L0 419Z" fill="#002131"></path></svg>